<?xml version="1.0" encoding="UTF-8"?>
<svg width="24px" height="24px" viewBox="0 0 24 24" version="1.1" xmlns="http://www.w3.org/2000/svg" xmlns:xlink="http://www.w3.org/1999/xlink">
    <title>arrow</title>
    <g id="Page-1" stroke="none" stroke-width="1" fill="none" fill-rule="evenodd">
        <g id="Artboard" transform="translate(-746.000000, -260.000000)">
            <g id="arrow" transform="translate(746.000000, 260.000000)">
                <rect id="ViewBox" x="0" y="0" width="24" height="24"></rect>
                <path d="M18,15.0000019 C17.7663478,15.0004565 17.5399121,14.9190812 17.36,14.77 L12,10.29 L6.63,14.61 C6.42340657,14.7777705 6.15845909,14.8562689 5.89381749,14.8281156 C5.6291759,14.7999622 5.38667319,14.6674797 5.22,14.46 C5.0522295,14.2534066 4.97373108,13.9884591 5.00188444,13.7238175 C5.0300378,13.4591759 5.16252029,13.2166732 5.37,13.05 L11.37,8.22 C11.7390019,7.91668285 12.2709981,7.91668285 12.64,8.22 L18.64,13.22 C18.8445071,13.3895482 18.9731478,13.6335008 18.9975369,13.8980285 C19.021926,14.1625562 18.9400589,14.4259174 18.77,14.63 C18.58158,14.862277 18.2990833,14.9980222 18,15.0000019 Z" id="Path" fill="#FFFFFF" fill-rule="nonzero"></path>
            </g>
        </g>
    </g>
</svg>