<?xml version="1.0" encoding="UTF-8"?>
<svg width="22px" height="36px" viewBox="0 0 22 36" version="1.1" xmlns="http://www.w3.org/2000/svg" xmlns:xlink="http://www.w3.org/1999/xlink">
    <title>balloons</title>
    <g id="Page-1" stroke="none" stroke-width="1" fill="none" fill-rule="evenodd">
        <g id="Artboard" transform="translate(-16.000000, -80.000000)">
            <g id="balloons" transform="translate(16.000000, 80.000000)">
                <rect id="Rectangle" x="0" y="0" width="22" height="36"></rect>
                <g id="balloon" transform="translate(0.000000, 6.000000)" stroke="#C79699">
                    <path d="M6,13.9718253 L8.11690481,17.5 L3.88309519,17.5 L6,13.9718253 Z" id="Triangle"></path>
                    <ellipse id="Oval" fill="#FFFFFF" cx="6.5" cy="8" rx="6" ry="7.5"></ellipse>
                    <path d="M4.01918955,9 C3.98081045,7.72395801 4,6.77570259 4.0767582,6.15523374 C4.15351639,5.5347649 4.46126366,4.81635365 5,4" id="Line" stroke-linecap="round"></path>
                    <path d="M5.90002795,18 C4.54718354,19.1950436 3.91677114,20.1719888 4.00879073,20.9308357 C4.23253921,22.7759954 7.3217927,23.1736893 6.97249886,24.3789979 C6.62320502,25.5843066 4.32814548,26.1017174 4.32814548,27" id="Line-6" stroke-linecap="square"></path>
                </g>
                <g id="balloon" transform="translate(9.000000, 3.000000)" stroke="#C79699">
                    <path d="M6,13.9718253 L8.11690481,17.5 L3.88309519,17.5 L6,13.9718253 Z" id="Triangle"></path>
                    <ellipse id="Oval" fill="#FFFFFF" cx="6.5" cy="8" rx="6" ry="7.5"></ellipse>
                    <path d="M8.01918955,9 C7.98081045,7.72395801 8,6.77570259 8.0767582,6.15523374 C8.15351639,5.5347649 8.46126366,4.81635365 9,4" id="Line" stroke-linecap="round" transform="translate(8.500000, 6.500000) scale(-1, 1) translate(-8.500000, -6.500000) "></path>
                    <path d="M6.521337,18 C4.75292316,19.2169543 3.9147561,20.0978381 4.00683583,20.6426512 C4.23073055,21.9673813 7.322003,22.2529051 6.97248089,23.1182549 C6.62295877,23.9836047 4.3263993,24.3550792 4.3263993,25" id="Line-6" stroke-linecap="square"></path>
                </g>
            </g>
        </g>
    </g>
</svg>