<?xml version="1.0" encoding="UTF-8"?>
<svg width="36px" height="36px" viewBox="0 0 36 36" version="1.1" xmlns="http://www.w3.org/2000/svg" xmlns:xlink="http://www.w3.org/1999/xlink">
    <title>close</title>
    <g id="Page-1" stroke="none" stroke-width="1" fill="none" fill-rule="evenodd">
        <g id="Artboard" transform="translate(-740.000000, -200.000000)">
            <g id="close" transform="translate(740.000000, 200.000000)">
                <rect id="ViewBox" x="0" y="0" width="36" height="36"></rect>
                <path d="M19.41,18 L26.7,10.71 C27.0397768,10.3132397 27.0169323,9.72180583 26.6475632,9.35243678 C26.2781942,8.98306773 25.6867603,8.9602232 25.29,9.3 L18,16.59 L10.71,9.29 C10.3132397,8.9502232 9.72180583,8.97306773 9.35243678,9.34243678 C8.98306773,9.71180583 8.9602232,10.3032397 9.3,10.7 L16.59,18 L9.29,25.29 C9.00462384,25.5343899 8.88031806,25.9181184 8.96818987,26.283419 C9.05606167,26.6487195 9.34128045,26.9339383 9.70658103,27.0218101 C10.0718816,27.1096819 10.4556101,26.9853762 10.7,26.7 L18,19.41 L25.29,26.7 C25.6867603,27.0397768 26.2781942,27.0169323 26.6475632,26.6475632 C27.0169323,26.2781942 27.0397768,25.6867603 26.7,25.29 L19.41,18 Z" id="Path" fill="#96C7C4" fill-rule="nonzero"></path>
                <polygon id="Path" points="0 0 36 0 36 36 0 36"></polygon>
            </g>
        </g>
    </g>
</svg>