<?xml version="1.0" encoding="UTF-8"?>
<svg width="180px" height="106px" viewBox="0 0 180 106" version="1.1" xmlns="http://www.w3.org/2000/svg" xmlns:xlink="http://www.w3.org/1999/xlink">
    <title>diamond-hall-logo</title>
    <g id="Page-1" stroke="none" stroke-width="1" fill="none" fill-rule="evenodd">
        <g id="Mobile" transform="translate(-70.000000, -14.000000)">
            <g id="diamond-hall-logo" transform="translate(71.000000, 14.000000)">
                <rect id="Rectangle" x="0" y="0" width="176" height="104"></rect>
                <ellipse id="Oval" stroke="#96C7C4" stroke-width="3" cx="88" cy="34" rx="33.5" ry="30.5"></ellipse>
                <g id="swigly-lines" transform="translate(6.000000, 36.000000)" stroke="#96C7C4" stroke-linecap="round" stroke-width="3">
                    <g id="left-lines">
                        <path d="M62.6992997,22.6026167 C60.2626939,28.5467635 54.5899663,31.8128385 45.681117,32.4008416 C32.3178429,33.2828463 23.4435593,28.1631823 21.287535,26.2026167 C19.1315107,24.2420511 17.1888451,20.9100655 17.1888451,16.644486 C17.1888451,12.3789065 19.3017765,7.61218491 21.287535,7.61073606 C23.2732935,7.6092872 26.9072576,15.7026167 23.3823527,22.6026167 C19.8574479,29.5026167 9.38980216,28.5200212 6.04393013,28.2896425 C2.69805809,28.0592639 -3.4926072,22.6026167 2.52873937,19.1042396" id="Line-2"></path>
                        <path d="M41.5142882,32.5020358 C53.6497283,27.9719907 59.4172811,21.6721843 58.8169468,13.6026167 C57.9164452,1.49826536 52.4746829,0 47.4934174,0 C42.5121518,0 39.0117325,3.0470226 38.1624501,6.99659991 C37.3131678,10.9461772 40.6253162,13.0942956 43.8698272,12.754367" id="Line-3"></path>
                    </g>
                    <g id="right-lines" transform="translate(133.500000, 16.500000) scale(-1, 1) translate(-133.500000, -16.500000) translate(102.000000, 0.000000)">
                        <path d="M62.6992997,22.6026167 C60.2626939,28.5467635 54.5899663,31.8128385 45.681117,32.4008416 C32.3178429,33.2828463 23.4435593,28.1631823 21.287535,26.2026167 C19.1315107,24.2420511 17.1888451,20.9100655 17.1888451,16.644486 C17.1888451,12.3789065 19.3017765,7.61218491 21.287535,7.61073606 C23.2732935,7.6092872 26.9072576,15.7026167 23.3823527,22.6026167 C19.8574479,29.5026167 9.38980216,28.5200212 6.04393013,28.2896425 C2.69805809,28.0592639 -3.4926072,22.6026167 2.52873937,19.1042396" id="Line-2"></path>
                        <path d="M41.5142882,32.5020358 C53.6497283,27.9719907 59.4172811,21.6721843 58.8169468,13.6026167 C57.9164452,1.49826536 52.4746829,0 47.4934174,0 C42.5121518,0 39.0117325,3.0470226 38.1624501,6.99659991 C37.3131678,10.9461772 40.6253162,13.0942956 43.8698272,12.754367" id="Line-3"></path>
                    </g>
                </g>
                <g id="diamond-and-lines" transform="translate(62.000000, 8.000000)">
                    <g id="diamond-outline" transform="translate(0.000000, 5.082474)">
                        <rect id="ViewBox" x="0" y="0" width="52" height="52.6185567"></rect>
                        <path d="M10.8890653,7.17525773 L41.7609347,7.17525773 C42.4541341,7.17525773 43.1054972,7.50707201 43.5130985,8.06809605 L51.7931011,19.4582855 C52.0966247,19.876189 52.0630818,20.4503742 51.712965,20.8300492 L27.1198629,47.4873402 C26.7141535,47.9261247 26.0299456,47.953276 25.5907806,47.5480185 C25.5756197,47.535016 17.3605923,38.630471 0.937034953,20.8300492 C0.586918232,20.4503742 0.553375331,19.876189 0.856898909,19.4582855 L9.1369015,8.06809605 C9.54450275,7.50707201 10.1958659,7.17525773 10.8890653,7.17525773 Z M11.9936432,11.5094242 L5.9292939,19.8526947 L26.325,41.9569437 L46.7207061,19.8526947 L40.6563568,11.5094242 L11.9936432,11.5094242 Z" id="Shape" fill="#96C7C4" fill-rule="nonzero"></path>
                    </g>
                    <g id="shine-lines" transform="translate(11.700000, 0.000000)" stroke="#96C7C4" stroke-linecap="round" stroke-width="3">
                        <line x1="14.3" y1="9.26804124" x2="14.3" y2="0.298969072" id="Line"></line>
                        <line x1="6.26717919" y1="9.56142954" x2="4.61852778e-15" y2="2.69072165" id="Line"></line>
                        <line x1="22.6980596" y1="9.903811" x2="27.6769404" y2="2.04920035" id="Line" transform="translate(25.187500, 5.976506) rotate(10.000000) translate(-25.187500, -5.976506) "></line>
                    </g>
                </g>
                <g id="leaves" transform="translate(0.000000, 35.000000)">
                    <g id="left-leaves" transform="translate(0.000000, 1.000000)">
                        <g id="leaf" transform="translate(30.223525, 6.203326) rotate(413.000000) translate(-30.223525, -6.203326) translate(26.723525, 1.203326)">
                            <rect id="ViewBox" x="0.578828521" y="0.409062156" width="5.80434783" height="8.35087719"></rect>
                            <g id="Group" stroke-linecap="round" stroke-linejoin="round" transform="translate(1.868684, 1.005553)" stroke="#96C7C4" stroke-width="2">
                                <path d="M3.22463768,3.57894737 C3.22463768,6.10099579 1.61231884,7.15789474 1.61231884,7.15789474 C1.61231884,7.15789474 0,6.33026316 0,3.57894737 C0,0.827631579 1.61231884,0 1.61231884,0 C1.61231884,0 3.22463768,1.05690789 3.22463768,3.57894737 Z" id="Path"></path>
                            </g>
                        </g>
                        <g id="leaf" transform="translate(42.849510, 12.670199) rotate(554.000000) translate(-42.849510, -12.670199) translate(39.349510, 7.670199)">
                            <rect id="ViewBox" x="0.578828521" y="0.409062156" width="5.80434783" height="8.35087719"></rect>
                            <g id="Group" stroke-linecap="round" stroke-linejoin="round" transform="translate(1.868684, 1.005553)" stroke="#96C7C4" stroke-width="2">
                                <path d="M3.22463768,3.57894737 C3.22463768,6.10099579 1.61231884,7.15789474 1.61231884,7.15789474 C1.61231884,7.15789474 0,6.33026316 0,3.57894737 C0,0.827631579 1.61231884,0 1.61231884,0 C1.61231884,0 3.22463768,1.05690789 3.22463768,3.57894737 Z" id="Path"></path>
                            </g>
                        </g>
                        <g id="leaf" transform="translate(6.234375, 28.911452) rotate(254.000000) translate(-6.234375, -28.911452) translate(2.734375, 23.911452)">
                            <rect id="ViewBox" x="0.578828521" y="0.409062156" width="5.80434783" height="8.35087719"></rect>
                            <g id="Group" stroke-linecap="round" stroke-linejoin="round" transform="translate(1.868684, 1.005553)" stroke="#96C7C4" stroke-width="2">
                                <path d="M3.22463768,3.57894737 C3.22463768,6.10099579 1.61231884,7.15789474 1.61231884,7.15789474 C1.61231884,7.15789474 0,6.33026316 0,3.57894737 C0,0.827631579 1.61231884,0 1.61231884,0 C1.61231884,0 3.22463768,1.05690789 3.22463768,3.57894737 Z" id="Path"></path>
                            </g>
                        </g>
                    </g>
                    <g id="right-leaves" transform="translate(129.303640, 0.285458)">
                        <g id="leaf" transform="translate(5.097283, 12.600349) rotate(163.000000) translate(-5.097283, -12.600349) translate(1.597283, 7.600349)">
                            <rect id="ViewBox" x="0.578828521" y="0.409062156" width="5.80434783" height="8.35087719"></rect>
                            <g id="Group" stroke-linecap="round" stroke-linejoin="round" transform="translate(1.868684, 1.005553)" stroke="#96C7C4" stroke-width="2">
                                <path d="M3.22463768,3.57894737 C3.22463768,6.10099579 1.61231884,7.15789474 1.61231884,7.15789474 C1.61231884,7.15789474 0,6.33026316 0,3.57894737 C0,0.827631579 1.61231884,0 1.61231884,0 C1.61231884,0 3.22463768,1.05690789 3.22463768,3.57894737 Z" id="Path"></path>
                            </g>
                        </g>
                        <g id="leaf" transform="translate(17.516823, 6.824226) rotate(313.000000) translate(-17.516823, -6.824226) translate(14.016823, 1.824226)">
                            <rect id="ViewBox" x="0.578828521" y="0.409062156" width="5.80434783" height="8.35087719"></rect>
                            <g id="Group" stroke-linecap="round" stroke-linejoin="round" transform="translate(1.868684, 1.005553)" stroke="#96C7C4" stroke-width="2">
                                <path d="M3.22463768,3.57894737 C3.22463768,6.10099579 1.61231884,7.15789474 1.61231884,7.15789474 C1.61231884,7.15789474 0,6.33026316 0,3.57894737 C0,0.827631579 1.61231884,0 1.61231884,0 C1.61231884,0 3.22463768,1.05690789 3.22463768,3.57894737 Z" id="Path"></path>
                            </g>
                        </g>
                        <g id="leaf" transform="translate(41.601073, 29.747551) rotate(464.000000) translate(-41.601073, -29.747551) translate(38.101073, 24.747551)">
                            <rect id="ViewBox" x="0.578828521" y="0.409062156" width="5.80434783" height="8.35087719"></rect>
                            <g id="Group" stroke-linecap="round" stroke-linejoin="round" transform="translate(1.868684, 1.005553)" stroke="#96C7C4" stroke-width="2">
                                <path d="M3.22463768,3.57894737 C3.22463768,6.10099579 1.61231884,7.15789474 1.61231884,7.15789474 C1.61231884,7.15789474 0,6.33026316 0,3.57894737 C0,0.827631579 1.61231884,0 1.61231884,0 C1.61231884,0 3.22463768,1.05690789 3.22463768,3.57894737 Z" id="Path"></path>
                            </g>
                        </g>
                    </g>
                </g>
                <g id="logo-name" transform="translate(40.000000, 73.000000)">
                    <path d="M25.309762,27.3793103 L25.309762,25.0527344 L27.4838418,25.0527344 L27.4838418,27.3793103 L28.6388217,27.3793103 L28.6388217,22.1674973 L27.4838418,22.1674973 L27.4838418,24.1546336 L25.309762,24.1546336 L25.309762,22.1674973 L24.1585566,22.1674973 L24.1585566,27.3793103 L25.309762,27.3793103 Z M30.6694725,27.4995286 C30.9613629,27.4995286 31.2230577,27.4370622 31.4545569,27.3121296 C31.6483117,27.2060547 31.8194198,27.0775862 31.9678813,26.9267241 C31.9754302,27.0139413 31.9854954,27.0917295 31.9980768,27.1600889 C32.0106583,27.2284483 32.033305,27.3015221 32.0660168,27.3793103 L32.0660168,27.3793103 L33.2360945,27.3793103 L33.2360945,27.2308055 C33.1656382,27.2001616 33.112796,27.1612675 33.0775678,27.1141231 C33.0423397,27.0669787 33.0209512,26.9774044 33.0134023,26.8454001 C33.0083697,26.6709658 33.0058534,26.5224609 33.0058534,26.3998855 L33.0058534,24.6319706 C33.0058534,24.1675983 32.8309708,23.8517309 32.4812057,23.6843683 C32.1314405,23.5170057 31.7313495,23.4333244 31.2809325,23.4333244 C30.5889511,23.4333244 30.1007896,23.6030442 29.8164482,23.9424838 C29.6377912,24.1593481 29.5371393,24.4363214 29.5144927,24.7734038 L29.5144927,24.7734038 L30.5524648,24.7734038 C30.5776277,24.624899 30.6279537,24.507038 30.7034425,24.4198209 C30.809127,24.3019599 30.9890421,24.2430294 31.243188,24.2430294 C31.4696547,24.2430294 31.6413919,24.2730839 31.7583996,24.333193 C31.8754074,24.3933021 31.9339113,24.5023235 31.9339113,24.6602573 C31.9339113,24.7899044 31.8571643,24.8853718 31.7036702,24.9466595 C31.6181161,24.9820178 31.4759454,25.011483 31.277158,25.0350552 L31.277158,25.0350552 L30.911037,25.0774852 C30.4958481,25.1269868 30.1813111,25.2094895 29.9674259,25.3249933 C29.5774001,25.537143 29.3823871,25.8801185 29.3823871,26.3539197 C29.3823871,26.7192888 29.5037984,27.0015659 29.746621,27.2007509 C29.9894435,27.399936 30.2970607,27.4995286 30.6694725,27.4995286 Z M30.9865258,26.7676118 C30.8405807,26.7676118 30.7172822,26.7287177 30.6166303,26.6509294 C30.5134622,26.5754984 30.4618781,26.4517443 30.4618781,26.2796673 C30.4618781,26.0863753 30.5449159,25.9437635 30.7109914,25.8518319 C30.809127,25.7976158 30.9714281,25.7516501 31.1978947,25.7139345 L31.1978947,25.7139345 L31.4394591,25.6715046 C31.5602413,25.6502896 31.6552315,25.6273067 31.7244296,25.6025559 C31.7936278,25.5778051 31.8621968,25.5453933 31.9301368,25.5053206 L31.9301368,25.5053206 L31.9301368,25.8801185 C31.922588,26.217201 31.821307,26.4493871 31.6262941,26.576677 C31.4312812,26.7039669 31.2180251,26.7676118 30.9865258,26.7676118 Z M35.0591509,27.3793103 L35.0591509,22.1674973 L33.9834344,22.1674973 L33.9834344,27.3793103 L35.0591509,27.3793103 Z M37.2068096,27.3793103 L37.2068096,22.1674973 L36.131093,22.1674973 L36.131093,27.3793103 L37.2068096,27.3793103 Z M42.1173612,27.5066002 C42.4922894,27.5066002 42.8231823,27.4370622 43.11004,27.2979863 C43.271083,27.220198 43.4447074,27.0999798 43.6309133,26.9373316 L43.6309133,26.9373316 L44.0159066,27.3793103 L45.3218642,27.3793103 L44.3103132,26.2407732 C44.4914865,26.0215517 44.6223339,25.821188 44.7028554,25.6396821 C44.8488006,25.316743 44.929322,24.9973397 44.9444198,24.6814723 L44.9444198,24.6814723 L43.9894855,24.6814723 C43.9869692,24.8417632 43.9611771,24.9938039 43.9121094,25.1375943 C43.8630416,25.2813847 43.7932144,25.4145676 43.7026277,25.537143 L43.7026277,25.537143 L42.9137689,24.624899 C43.2132082,24.4622508 43.4403039,24.2854593 43.5950561,24.0945245 C43.7498083,23.9035897 43.8271844,23.654903 43.8271844,23.3484644 C43.8271844,23.0090248 43.6982242,22.7302835 43.4403039,22.5122407 C43.1823835,22.2941979 42.8558941,22.1851765 42.4608356,22.1851765 C42.0280327,22.1851765 41.6757513,22.2918407 41.4039913,22.505169 C41.1322314,22.7184974 40.9963514,23.0149178 40.9963514,23.3944302 C40.9963514,23.585365 41.0403866,23.7692282 41.1284569,23.9460197 C41.2165273,24.1228112 41.3410839,24.2960668 41.5021269,24.4657866 L41.5021269,24.4657866 L41.3851191,24.5329674 C41.0076747,24.7521888 40.7359147,24.9737675 40.5698392,25.1977034 C40.4037637,25.4216393 40.3207259,25.6903623 40.3207259,26.0038726 C40.3207259,26.383385 40.4792525,26.7287177 40.7963058,27.0398707 C41.1133591,27.3510237 41.5537109,27.5066002 42.1173612,27.5066002 Z M42.3853468,24.0202721 C42.234369,23.8458378 42.1362335,23.724441 42.0909401,23.6560816 C42.0204838,23.552364 41.9852557,23.4533607 41.9852557,23.3590719 C41.9852557,23.2011382 42.0481631,23.0856344 42.1739779,23.0125606 C42.2570157,22.963059 42.3463442,22.9383082 42.4419634,22.9383082 C42.5954575,22.9383082 42.709949,22.9807381 42.7854378,23.0655981 C42.8609267,23.150458 42.8986712,23.247104 42.8986712,23.3555361 C42.8986712,23.5040409 42.8357638,23.6419383 42.709949,23.7692282 C42.6445253,23.8375876 42.5363245,23.9212689 42.3853468,24.0202721 Z M42.1928501,26.6615369 C41.9588346,26.6615369 41.766967,26.5896417 41.6172474,26.4458513 C41.4675278,26.3020609 41.392668,26.1441272 41.392668,25.9720501 C41.392668,25.8188308 41.4360741,25.6785762 41.5228863,25.5512864 C41.6096985,25.4239965 41.7877265,25.2766703 42.0569701,25.1093077 L42.0569701,25.1093077 L43.07607,26.2902748 C42.9779345,26.3845636 42.8502325,26.4700128 42.692964,26.5466224 C42.5356955,26.6232321 42.3689908,26.6615369 42.1928501,26.6615369 Z M52.4706612,27.3793103 L52.4706612,26.4423155 L49.3907149,26.4423155 L49.3907149,25.102236 L52.0932168,25.102236 L52.0932168,24.1970636 L49.3907149,24.1970636 L49.3907149,23.0903489 L52.3347812,23.0903489 L52.3347812,22.1674973 L48.2546072,22.1674973 L48.2546072,27.3793103 L52.4706612,27.3793103 Z M55.4977653,27.3793103 L56.9811218,23.5252559 L55.8261419,23.5252559 L54.9504709,26.368063 L54.0936721,23.5252559 L52.88585,23.5252559 L54.3616576,27.3793103 L55.4977653,27.3793103 Z M59.2495626,27.5066002 C59.8836692,27.5066002 60.3768633,27.3192012 60.7291447,26.9444033 C60.9556113,26.7086813 61.0826843,26.4764952 61.1103635,26.2478448 L61.1103635,26.2478448 L60.0120003,26.2478448 C59.9541255,26.3609914 59.8874437,26.4493871 59.8119548,26.5130321 C59.6735585,26.630893 59.4936434,26.6898235 59.2722093,26.6898235 C59.0633567,26.6898235 58.8846997,26.6415005 58.7362383,26.5448545 C58.4921575,26.389278 58.3625683,26.1181977 58.3474705,25.7316137 L58.3474705,25.7316137 L61.1632058,25.7316137 C61.1682384,25.3992457 61.156915,25.1446659 61.1292358,24.9678745 C61.0814261,24.6661503 60.9769999,24.4009631 60.8159569,24.1723128 C60.6372999,23.9130186 60.4108333,23.7232624 60.136557,23.6030442 C59.8622807,23.482826 59.5540345,23.4227169 59.2118182,23.4227169 C58.6355864,23.4227169 58.1669263,23.600687 57.8058378,23.9566272 C57.4447493,24.3125673 57.2642051,24.8240841 57.2642051,25.4911773 C57.2642051,26.2030577 57.4642506,26.7169316 57.8643417,27.032799 C58.2644328,27.3486665 58.7261731,27.5066002 59.2495626,27.5066002 Z M60.0459703,25.0668777 L58.3738916,25.0668777 C58.4091198,24.8170124 58.4953029,24.6190059 58.632441,24.4728583 C58.7695792,24.3267107 58.9627049,24.2536369 59.2118182,24.2536369 C59.4408011,24.2536369 59.6326687,24.3225855 59.7874209,24.4604829 C59.9421731,24.5983803 60.0283563,24.8005119 60.0459703,25.0668777 L60.0459703,25.0668777 Z M62.96739,27.3793103 L62.96739,25.2931708 C62.96739,25.0550916 63.0026181,24.8594423 63.0730744,24.7062231 C63.2089544,24.416285 63.4593259,24.271316 63.8241888,24.271316 C64.1211117,24.271316 64.3224154,24.3703192 64.4280998,24.5683257 C64.4859746,24.6767578 64.514912,24.8323343 64.514912,25.0350552 L64.514912,25.0350552 L64.514912,27.3793103 L65.6170497,27.3793103 L65.6170497,24.7840113 C65.6170497,24.3007812 65.4817988,23.9548592 65.211297,23.7462453 C64.9407951,23.5376313 64.5929172,23.4333244 64.1676632,23.4333244 C63.8279632,23.4333244 63.5473962,23.5111126 63.3259622,23.6666891 C63.2026637,23.7539062 63.0718163,23.896518 62.93342,24.0945245 L62.93342,24.0945245 L62.93342,23.5323276 L61.8954479,23.5323276 L61.8954479,27.3793103 L62.96739,27.3793103 Z M67.8489939,27.4344104 L67.9836261,27.4323478 L68.493176,27.4146686 L68.493176,26.6615369 C68.4579479,26.6638941 68.4220907,26.665662 68.3856044,26.6668407 C68.3491181,26.6680193 68.314519,26.6686086 68.2818072,26.6686086 C68.0628894,26.6686086 67.932042,26.6491615 67.889265,26.6102674 C67.846488,26.5713732 67.8250995,26.4729593 67.8250995,26.3150256 L67.8250995,26.3150256 L67.8250995,24.2783877 L68.493176,24.2783877 L68.493176,23.5606142 L67.8250995,23.5606142 L67.8250995,22.485722 L66.7607062,22.485722 L66.7607062,23.5606142 L66.1869907,23.5606142 L66.1869907,24.2783877 L66.7607062,24.2783877 L66.7607062,26.6509294 C66.7607062,26.8913658 66.8210973,27.0693359 66.9418796,27.1848397 C67.1280855,27.3663456 67.4753343,27.4488483 67.9836261,27.4323478 L67.8489939,27.4344104 Z M70.8257824,27.510136 C71.459889,27.510136 71.9285492,27.3893285 72.2317628,27.1477135 C72.5349765,26.9060985 72.6865833,26.5943561 72.6865833,26.2124865 C72.6865833,25.9225485 72.5808989,25.6809335 72.3695301,25.4876414 C72.1556449,25.2967066 71.8348171,25.1540948 71.4070468,25.059806 C70.7653913,24.9278017 70.3917214,24.8346915 70.286037,24.7804755 C70.1803525,24.7286166 70.1275103,24.6449353 70.1275103,24.5294316 C70.1275103,24.4375 70.1772072,24.3573545 70.2766008,24.2889952 C70.3759945,24.2206358 70.5426991,24.1864561 70.7767147,24.1864561 C71.0610561,24.1864561 71.2623598,24.2548155 71.3806257,24.3915342 C71.4435331,24.4669652 71.4825357,24.5695043 71.4976335,24.6991514 L71.4976335,24.6991514 L72.57335,24.6991514 C72.5255404,24.2277074 72.3405926,23.8953394 72.0185068,23.7020474 C71.6939046,23.5111126 71.2749413,23.4156452 70.7616169,23.4156452 C70.2206133,23.4156452 69.8010209,23.5435244 69.5028398,23.7992827 C69.2046587,24.0550411 69.0555682,24.3608904 69.0555682,24.7168305 C69.0555682,25.0185547 69.1511875,25.2495622 69.3424259,25.4098532 C69.5336644,25.5725013 69.8620411,25.7080415 70.3275558,25.8164736 C70.9742439,25.960264 71.3479139,26.0616245 71.4485657,26.120555 C71.5492176,26.1794855 71.5995435,26.265524 71.5995435,26.3786705 C71.5995435,26.4965315 71.5372651,26.5849273 71.4127085,26.6438578 C71.2881518,26.7027883 71.1201891,26.7322535 70.9088202,26.7322535 C70.5489899,26.7322535 70.3023929,26.6650727 70.1690292,26.5307112 C70.0935403,26.4552802 70.0444725,26.3279903 70.0218259,26.1488416 L70.0218259,26.1488416 L68.9310116,26.1488416 C68.9310116,26.5448545 69.0851347,26.8707402 69.3933809,27.1264985 C69.7016272,27.3822569 70.1790944,27.510136 70.8257824,27.510136 Z" id="Hall&amp;Events" fill="#96C7C4" fill-rule="nonzero"></path>
                    <path d="M7.64284773,15.9137931 C10.0241025,15.9137931 11.7850903,14.9954595 12.9258112,13.1587924 C13.7670928,11.7963194 14.1877337,10.1333008 14.1877337,8.16973666 C14.1877337,7.39499708 14.0879206,6.58018476 13.8882944,5.7252997 C13.6886683,4.87041465 13.3143692,4.07563869 12.7653973,3.34097185 C12.0809648,2.43265647 11.1862119,1.80818966 10.0811386,1.46757139 C9.43235358,1.2672077 8.61958996,1.16034707 7.64284773,1.14698949 L7.64284773,1.14698949 L0.851993865,1.14698949 L0.851993865,15.9137931 L7.64284773,15.9137931 Z M7.08674631,13.3491379 L4.04957702,13.3491379 L4.04957702,3.71164467 L7.08674631,3.71164467 C8.58394244,3.71164467 9.58563794,4.11237204 10.0918328,4.91382678 C10.5908982,5.72196031 10.8404309,6.87739089 10.8404309,8.38011853 C10.8404309,9.46876122 10.6728875,10.4071312 10.3378008,11.1952283 C9.7246633,12.6311681 8.64097848,13.3491379 7.08674631,13.3491379 L7.08674631,13.3491379 Z M19.6845823,15.9137931 L19.6845823,1.14698949 L16.4121393,1.14698949 L16.4121393,15.9137931 L19.6845823,15.9137931 Z M25.0851826,15.9137931 L26.1759969,12.8782833 L31.9829791,12.8782833 L32.9989336,15.9137931 L36.5708158,15.9137931 L30.9884131,1.14698949 L27.2668113,1.14698949 L21.6416315,15.9137931 L25.0851826,15.9137931 Z M31.0632729,10.3336645 L27.0636204,10.3336645 L29.0955294,4.52311759 L31.0632729,10.3336645 Z M41.5864228,15.9137931 L41.5862557,5.81256748 C41.5854759,5.53607603 41.5819668,5.1713776 41.5757285,4.71847218 C41.5701834,4.31588959 41.5667946,3.98502154 41.5655624,3.72586801 L41.5650343,3.52129916 L44.5273438,15.9137931 L47.7249269,15.9137931 L50.7086249,3.52129916 C50.7086249,3.80180832 50.7050602,4.200866 50.6979306,4.71847218 C50.6908011,5.23607837 50.6872364,5.63847544 50.6872364,5.92566339 L50.6872364,15.9137931 L53.7564884,15.9137931 L53.7564884,1.14698949 L49.0189321,1.14698949 L46.1742595,12.7580651 L43.3081983,1.14698949 L38.5171707,1.14698949 L38.5171707,15.9137931 L41.5864228,15.9137931 Z M63.7877025,16.3245387 C66.0406262,16.3245387 67.7624017,15.7501628 68.9530291,14.601411 C70.5429088,13.1921864 71.3378487,11.1618344 71.3378487,8.51035493 C71.3378487,5.80544518 70.5429088,3.77509317 68.9530291,2.4192989 C67.7624017,1.2705471 66.0406262,0.696171202 63.7877025,0.696171202 C61.5347788,0.696171202 59.8130033,1.2705471 58.6223759,2.4192989 C57.0253667,3.77509317 56.2268621,5.80544518 56.2268621,8.51035493 C56.2268621,11.1618344 57.0253667,13.1921864 58.6223759,14.601411 C59.8130033,15.7501628 61.5347788,16.3245387 63.7877025,16.3245387 Z M63.7877025,13.7097926 C62.483003,13.7097926 61.4420952,13.2589743 60.6649792,12.3573377 C59.8878631,11.4557011 59.499305,10.1733735 59.499305,8.51035493 C59.499305,6.84733634 59.8878631,5.56500876 60.6649792,4.66337217 C61.4420952,3.76173559 62.483003,3.3109173 63.7877025,3.3109173 C65.092402,3.3109173 66.1279626,3.76340528 66.8943845,4.66838126 C67.6608063,5.57335724 68.0440172,6.85401513 68.0440172,8.51035493 C68.0440172,10.1733735 67.6625887,11.4557011 66.8997316,12.3573377 C66.129745,13.2589743 65.092402,13.7097926 63.7877025,13.7097926 Z M76.8667801,15.9137931 L76.8667801,5.42475418 L83.3047234,15.9137931 L86.5985549,15.9137931 L86.5985549,1.14698949 L83.5293029,1.14698949 L83.5293029,11.4557011 L77.2517734,1.14698949 L73.797528,1.14698949 L73.797528,15.9137931 L76.8667801,15.9137931 Z M96.4586609,15.9137931 C98.8399156,15.9137931 100.600903,14.9954595 101.741624,13.1587924 C102.582906,11.7963194 103.003547,10.1333008 103.003547,8.16973666 C103.003547,7.39499708 102.903734,6.58018476 102.704108,5.7252997 C102.504481,4.87041465 102.130182,4.07563869 101.58121,3.34097185 C100.896778,2.43265647 100.002025,1.80818966 98.8969517,1.46757139 C98.2481667,1.2672077 97.4354031,1.16034707 96.4586609,1.14698949 L96.4586609,1.14698949 L89.667807,1.14698949 L89.667807,15.9137931 L96.4586609,15.9137931 Z M95.9025594,13.3491379 L92.8653901,13.3491379 L92.8653901,3.71164467 L95.9025594,3.71164467 C97.3997556,3.71164467 98.4014511,4.11237204 98.9076459,4.91382678 C99.4067113,5.72196031 99.656244,6.87739089 99.656244,8.38011853 C99.656244,9.46876122 99.4887006,10.4071312 99.1536139,11.1952283 C98.5404764,12.6311681 97.4567916,13.3491379 95.9025594,13.3491379 L95.9025594,13.3491379 Z" id="DIAMOND" fill="#96C7C4" fill-rule="nonzero"></path>
                    <g id="logo-name-lines" transform="translate(4.797546, 18.327586)" stroke="#96C7C4" stroke-linecap="round" stroke-width="2">
                        <line x1="0.32208589" y1="0.301724138" x2="93.0828221" y2="0.301724138" id="Line-4"></line>
                        <g id="name-lines-left" transform="translate(0.496601, 1.260068)">
                            <path d="M11.4193542,0 C7.18159538,2.64954601 4.60531596,4.14044276 3.69051594,4.47269024 C2.3183159,4.97106147 0.344130527,4.27262801 0.117863433,3.50723634 C-0.108403661,2.74184467 -0.347885687,-0.206462528 2.88774761,1.757173" id="Line-5"></path>
                            <path d="M16.3554959,2.6245931 C13.9442209,5.654001 12.3062547,7.32912865 11.4415974,7.64997604 C10.1446115,8.13124714 7.94921404,7.33294523 7.40086492,6.51998423 C6.85251581,5.70702324 8.0788359,2.48473196 11.2353133,4.63427412" id="Line-5" transform="translate(11.814927, 5.210098) scale(-1, 1) rotate(-56.000000) translate(-11.814927, -5.210098) "></path>
                        </g>
                        <g id="name-lines-right" transform="translate(77.671447, 6.760068) scale(-1, 1) translate(-77.671447, -6.760068) translate(69.171447, 1.260068)">
                            <path d="M11.4193542,0 C7.18159538,2.64954601 4.60531596,4.14044276 3.69051594,4.47269024 C2.3183159,4.97106147 0.344130527,4.27262801 0.117863433,3.50723634 C-0.108403661,2.74184467 -0.347885687,-0.206462528 2.88774761,1.757173" id="Line-5"></path>
                            <path d="M16.3554959,2.6245931 C13.9442209,5.654001 12.3062547,7.32912865 11.4415974,7.64997604 C10.1446115,8.13124714 7.94921404,7.33294523 7.40086492,6.51998423 C6.85251581,5.70702324 8.0788359,2.48473196 11.2353133,4.63427412" id="Line-5" transform="translate(11.814927, 5.210098) scale(-1, 1) rotate(-56.000000) translate(-11.814927, -5.210098) "></path>
                        </g>
                    </g>
                </g>
            </g>
        </g>
    </g>
</svg>