<?xml version="1.0" encoding="UTF-8"?>
<svg width="36px" height="36px" viewBox="0 0 36 36" version="1.1" xmlns="http://www.w3.org/2000/svg" xmlns:xlink="http://www.w3.org/1999/xlink">
    <title>kitchen-cooker</title>
    <g id="Page-1" stroke="none" stroke-width="1" fill="none" fill-rule="evenodd">
        <g id="Artboard" transform="translate(-55.000000, -80.000000)">
            <g id="kitchen-cooker" transform="translate(55.000000, 80.000000)">
                <rect id="ViewBox" x="0" y="0" width="36" height="36"></rect>
                <path d="M6.2886,30.4118962 L5.9,30.4118962 C4.29837423,30.4118962 3,28.9897346 3,27.2354092 L3,8.17648703 C3,6.42216169 4.29837423,5 5.9,5 L29.1,5 C30.7016258,5 32,6.42216169 32,8.17648703 L32,27.2354092 C32,28.9897346 30.7016258,30.4118962 29.1,30.4118962 L28.7114,30.4118962 C28.1933456,31.394626 27.2360176,32 26.2,32 C25.1639824,32 24.2066544,31.394626 23.6886,30.4118962 L11.3114,30.4118962 C10.7933456,31.394626 9.83601757,32 8.8,32 C7.76398243,32 6.80665437,31.394626 6.2886,30.4118962 Z M5,7 L5,28 L30,28 L30,7 L5,7 Z M9,18 L26,18 L26,24 L9,24 L9,18 Z M9,11 L16,11 L16,14 L9,14 L9,11 Z M14,19 L14,21 L20,21 L20,19 L14,19 Z M20.5,14 C19.6715729,14 19,13.3284271 19,12.5 C19,11.6715729 19.6715729,11 20.5,11 C21.3284271,11 22,11.6715729 22,12.5 C22,13.3284271 21.3284271,14 20.5,14 Z M24.5,14 C23.6715729,14 23,13.3284271 23,12.5 C23,11.6715729 23.6715729,11 24.5,11 C25.3284271,11 26,11.6715729 26,12.5 C26,13.3284271 25.3284271,14 24.5,14 Z" id="Shape" fill="#C79699" fill-rule="nonzero"></path>
            </g>
        </g>
    </g>
</svg>