<?xml version="1.0" encoding="UTF-8"?>
<svg width="36px" height="36px" viewBox="0 0 36 36" version="1.1" xmlns="http://www.w3.org/2000/svg" xmlns:xlink="http://www.w3.org/1999/xlink">
    <title>microphone</title>
    <g id="Page-1" stroke="none" stroke-width="1" fill="none" fill-rule="evenodd">
        <g id="Artboard" transform="translate(-98.000000, -80.000000)">
            <g id="microphone" transform="translate(98.000000, 80.000000)">
                <rect id="ViewBox" x="0" y="0" width="36" height="36"></rect>
                <path d="M30.628125,19.29375 C34.4725446,15.4493304 34.4725446,9.21629463 30.628125,5.371875 C26.7837054,1.52745537 20.5506696,1.52745537 16.70625,5.371875 L16.6640625,5.4140625 L16.621875,5.45625 C14.8016216,7.29896043 13.7809943,9.78484477 13.78125,12.375 C13.7836481,12.7650449 13.8071198,13.1546754 13.8515625,13.5421875 L3.2625,27.9703125 C2.68647723,28.7548216 2.77014521,29.8425055 3.459375,30.5296875 L5.4703125,32.540625 C5.83955378,32.9098286 6.34034062,33.1171875 6.8625,33.1171875 C7.28177519,33.1162985 7.69013383,32.9834589 8.0296875,32.7375 L22.4578125,22.1484375 C22.8453246,22.1928802 23.2349551,22.2163519 23.625,22.21875 C26.2151552,22.2190057 28.7010396,21.1983784 30.54375,19.378125 L30.5859375,19.3359375 L30.628125,19.29375 Z M31.7812724,12.375 C31.780563,14.2453095 31.1348899,16.0581608 29.953125,17.5078125 L18.4921875,6.046875 C20.9309851,4.05732768 24.2980349,3.65154277 27.1396846,5.00470929 C29.9813342,6.3578758 31.7886065,9.22762357 31.7812724,12.375 L31.7812724,12.375 Z M7.03125,31.3734375 C6.91917727,31.4557265 6.76379386,31.4437739 6.665625,31.3453125 L4.6546875,29.334375 C4.5562261,29.2362061 4.54427353,29.0808227 4.6265625,28.96875 L14.3578125,15.69375 C15.3644408,18.4579967 17.5420033,20.6355592 20.30625,21.6421875 L7.03125,31.3734375 Z M15.4687276,12.375 C15.469437,10.5046905 16.1151101,8.69183916 17.296875,7.2421875 L28.7578125,18.703125 C26.3190149,20.6926723 22.9519651,21.0984572 20.1103154,19.7452907 C17.2686658,18.3921242 15.4613935,15.5223764 15.4687276,12.375 Z M14.653125,21.346875 C14.8147654,21.5008183 14.90625,21.7142822 14.90625,21.9375 C14.90625,22.1607178 14.8147654,22.3741817 14.653125,22.528125 L12.965625,24.215625 C12.754615,24.426635 12.4470613,24.5090438 12.1588162,24.4318088 C11.8705712,24.3545737 11.6454263,24.1294288 11.5681912,23.8411838 C11.4909562,23.5529387 11.573365,23.245385 11.784375,23.034375 L13.471875,21.346875 C13.6258183,21.1852346 13.8392822,21.09375 14.0625,21.09375 C14.2857178,21.09375 14.4991817,21.1852346 14.653125,21.346875 L14.653125,21.346875 Z" id="Shape" fill="#C79699" fill-rule="nonzero"></path>
            </g>
        </g>
    </g>
</svg>