<?xml version="1.0" encoding="UTF-8"?>
<svg width="100%" height="100%" viewBox="0 0 36 36" version="1.1" xmlns="http://www.w3.org/2000/svg" xmlns:xlink="http://www.w3.org/1999/xlink">
    <title>present</title>
    <defs>
        <linearGradient x1="76.0316756%" y1="26.7370792%" x2="22.0493891%" y2="94.5987654%" id="linearGradient-1">
            <stop stop-color="#B8E2E0" offset="0%"></stop>
            <stop stop-color="#8FC9C6" offset="47.2240528%"></stop>
            <stop stop-color="#7EB1AE" offset="100%"></stop>
        </linearGradient>
    </defs>
    <g id="Page-1" stroke="none" stroke-width="1" fill="none" fill-rule="evenodd">
        <g id="Artboard" transform="translate(-55.000000, -160.000000)">
            <g id="present" transform="translate(55.000000, 160.000000)">
                <rect id="ViewBox" x="0" y="0" width="36" height="36"></rect>
                <path d="M36,11.2265979 C36,9.976498 34.9925625,8.9629494 33.75,8.9629494 L29.90925,8.9629494 C30.9031875,7.97656458 31.539375,6.68349076 31.539375,5.0909787 C31.539375,3.13009321 30.42,1 27.277875,1 C23.1435,1 19.68975,5.42882823 18.0669375,7.91148469 C16.443,5.42939414 12.8835,1.00056591 8.7496875,1.00056591 C5.6075625,1.00056591 4.4881875,3.13065912 4.4881875,5.09154461 C4.4881875,6.68345539 5.1418125,7.97713049 6.156,8.96351531 L2.25,8.96351531 C1.0074375,8.96351531 0,9.97706391 0,11.2271638 L0,18.0028296 L2.2696875,18.0028296 L2.2696875,32.7363515 C2.2696875,33.9864514 3.27708984,35 4.5196875,35 L31.5084375,35 C32.7509648,35 33.7584375,33.9864514 33.7584375,32.7363515 L33.7584375,18.0022636 L36,18.0022636 L36,11.2265979 L36,11.2265979 Z M27.277875,3.26421438 C28.6689375,3.26421438 29.289375,3.85223244 29.289375,5.09157998 C29.289375,7.60592751 26.4999375,8.96238349 23.8764375,8.96238349 L20.06775,8.96238349 C21.6663398,6.57366844 24.48,3.26421438 27.277875,3.26421438 Z M8.74965234,3.26424975 C11.5480898,3.26424975 14.4679922,6.57370381 16.0666172,8.96185295 L12.2568047,8.96185295 C9.63330469,8.96185295 6.73811719,7.57027505 6.73811719,5.05592751 C6.73811719,3.81714589 7.35855469,3.26424975 8.74965234,3.26424975 Z M33.7499648,15.7386152 L19.1249648,15.7386152 L19.1249648,11.2265979 L33.7499648,11.2265979 L33.7499648,15.7386152 L33.7499648,15.7386152 Z M2.24996484,11.2265979 L16.8749648,11.2265979 L16.8749648,15.7386152 L2.24996484,15.7386152 L2.24996484,11.2265979 Z M4.51965234,18.0022636 L16.8749648,18.0022636 L16.8749648,32.7357856 L4.51965234,32.7357856 L4.51965234,18.0022636 Z M31.5089648,32.7357856 L19.1249648,32.7357856 L19.1249648,18.0022636 L31.5089648,18.0022636 L31.5089648,32.7357856 L31.5089648,32.7357856 Z" id="Shape" fill="url(#linearGradient-1)" fill-rule="nonzero"></path>
            </g>
        </g>
    </g>
</svg>